<svg xmlns="http://www.w3.org/2000/svg" xmlns:xlink="http://www.w3.org/1999/xlink" width="500" zoomAndPan="magnify" viewBox="0 0 375 374.999991" height="500" preserveAspectRatio="xMidYMid meet" version="1.0"><defs><g/></defs><path stroke-linecap="butt" transform="matrix(0.75, 0, 0, 0.75, 71.18124, -31.437072)" fill="none" stroke-linejoin="miter" d="M 275.789615 459.999459 L 51.576059 459.999459 L 51.576059 168.244232 L 165.164608 168.244232 C 189.456276 168.244232 209.273986 172.577565 224.622945 181.244233 C 239.768779 189.634858 251.503155 201.093192 259.826072 215.624443 C 268.216698 230.155694 272.414615 246.223404 272.414615 263.827571 C 272.414615 285.655698 265.690656 305.166116 252.253155 322.358825 C 238.883363 339.483826 221.997945 350.843202 201.596902 356.436953 Z M 77.977102 183.801525 L 191.97711 343.030702 C 210.669819 339.145285 226.159403 329.796326 238.440654 314.994241 C 250.784405 300.186949 256.961489 283.134864 256.961489 263.827571 C 256.961489 248.473404 253.17503 234.525486 245.602113 221.973402 C 238.096904 209.348401 227.487529 199.697359 213.773986 193.009858 C 201.497943 186.869233 185.430234 183.801525 165.576066 183.801525 Z M 67.029185 193.827567 L 67.029185 344.364035 L 174.7844 344.364035 Z M 67.029185 444.447375 L 246.419821 444.447375 L 185.227109 359.405703 L 172.227108 359.817161 L 67.029185 359.817161 Z M 67.029185 444.447375 " stroke="#efe8e8" stroke-width="31.437075" stroke-opacity="1" stroke-miterlimit="4"/><g fill="#efe8e8" fill-opacity="1"><g transform="translate(71.18124, 313.562905)"><g><path d="M 206.859375 0 L 38.671875 0 L 38.671875 -218.8125 L 123.859375 -218.8125 C 142.097656 -218.8125 156.976562 -215.5625 168.5 -209.0625 C 179.820312 -202.769531 188.625 -194.175781 194.90625 -183.28125 C 201.195312 -172.382812 204.34375 -160.332031 204.34375 -147.125 C 204.34375 -130.78125 199.3125 -116.160156 189.25 -103.265625 C 179.1875 -90.378906 166.507812 -81.84375 151.21875 -77.65625 Z M 58.46875 -207.171875 L 143.984375 -87.703125 C 158.023438 -90.640625 169.65625 -97.660156 178.875 -108.765625 C 188.101562 -119.878906 192.71875 -132.664062 192.71875 -147.125 C 192.71875 -158.65625 189.882812 -169.132812 184.21875 -178.5625 C 178.5625 -188 170.597656 -195.226562 160.328125 -200.25 C 151.109375 -204.863281 139.054688 -207.171875 124.171875 -207.171875 Z M 50.296875 -199.625 L 50.296875 -86.765625 L 131.09375 -86.765625 Z M 50.296875 -11.625 L 184.859375 -11.625 L 138.953125 -75.453125 L 129.203125 -75.140625 L 50.296875 -75.140625 Z M 50.296875 -11.625 "/></g></g></g></svg>