<svg xmlns="http://www.w3.org/2000/svg" xmlns:xlink="http://www.w3.org/1999/xlink" width="500" zoomAndPan="magnify" viewBox="0 0 375 187.499995" height="250" preserveAspectRatio="xMidYMid meet" version="1.0"><defs><g/><clipPath id="7274c40271"><path d="M 76 62 L 177 62 L 177 187 L 76 187 Z M 76 62 " clip-rule="nonzero"/></clipPath></defs><g fill="#efe8e8" fill-opacity="1"><g transform="translate(26.7577, 150.758831)"><g/></g></g><g fill="#efe8e8" fill-opacity="1"><g transform="translate(51.794324, 150.758831)"><g/></g></g><g clip-path="url(#7274c40271)"><g fill="#efe8e8" fill-opacity="1"><g transform="translate(76.836057, 150.758831)"><g><path d="M 100.15625 -88.421875 L 44.6875 42 L 15.53125 42 L 35.8125 -3.015625 L -0.15625 -88.421875 L 30.109375 -88.421875 L 50.546875 -33.125 L 70.828125 -88.421875 Z M 100.15625 -88.421875 "/></g></g></g></g><g fill="#efe8e8" fill-opacity="1"><g transform="translate(168.427738, 150.758831)"><g><path d="M 4.4375 -44.375 C 4.4375 -53.457031 6.148438 -61.429688 9.578125 -68.296875 C 13.015625 -75.160156 17.691406 -80.441406 23.609375 -84.140625 C 29.523438 -87.835938 36.128906 -89.6875 43.421875 -89.6875 C 49.648438 -89.6875 55.113281 -88.421875 59.8125 -85.890625 C 64.519531 -83.359375 68.140625 -80.03125 70.671875 -75.90625 L 70.671875 -88.421875 L 97.78125 -88.421875 L 97.78125 0 L 70.671875 0 L 70.671875 -12.515625 C 68.035156 -8.398438 64.363281 -5.070312 59.65625 -2.53125 C 54.957031 0 49.492188 1.265625 43.265625 1.265625 C 36.078125 1.265625 29.523438 -0.609375 23.609375 -4.359375 C 17.691406 -8.109375 13.015625 -13.441406 9.578125 -20.359375 C 6.148438 -27.285156 4.4375 -35.289062 4.4375 -44.375 Z M 70.671875 -44.21875 C 70.671875 -50.976562 68.796875 -56.3125 65.046875 -60.21875 C 61.296875 -64.125 56.726562 -66.078125 51.34375 -66.078125 C 45.957031 -66.078125 41.390625 -64.148438 37.640625 -60.296875 C 33.890625 -56.441406 32.015625 -51.132812 32.015625 -44.375 C 32.015625 -37.613281 33.890625 -32.25 37.640625 -28.28125 C 41.390625 -24.320312 45.957031 -22.34375 51.34375 -22.34375 C 56.726562 -22.34375 61.296875 -24.296875 65.046875 -28.203125 C 68.796875 -32.117188 70.671875 -37.457031 70.671875 -44.21875 Z M 70.671875 -44.21875 "/></g></g></g><g fill="#efe8e8" fill-opacity="1"><g transform="translate(267.467243, 150.758831)"><g><path d="M 4.4375 -44.375 C 4.4375 -53.457031 6.148438 -61.429688 9.578125 -68.296875 C 13.015625 -75.160156 17.691406 -80.441406 23.609375 -84.140625 C 29.523438 -87.835938 36.128906 -89.6875 43.421875 -89.6875 C 49.648438 -89.6875 55.113281 -88.421875 59.8125 -85.890625 C 64.519531 -83.359375 68.140625 -80.03125 70.671875 -75.90625 L 70.671875 -88.421875 L 97.78125 -88.421875 L 97.78125 0 L 70.671875 0 L 70.671875 -12.515625 C 68.035156 -8.398438 64.363281 -5.070312 59.65625 -2.53125 C 54.957031 0 49.492188 1.265625 43.265625 1.265625 C 36.078125 1.265625 29.523438 -0.609375 23.609375 -4.359375 C 17.691406 -8.109375 13.015625 -13.441406 9.578125 -20.359375 C 6.148438 -27.285156 4.4375 -35.289062 4.4375 -44.375 Z M 70.671875 -44.21875 C 70.671875 -50.976562 68.796875 -56.3125 65.046875 -60.21875 C 61.296875 -64.125 56.726562 -66.078125 51.34375 -66.078125 C 45.957031 -66.078125 41.390625 -64.148438 37.640625 -60.296875 C 33.890625 -56.441406 32.015625 -51.132812 32.015625 -44.375 C 32.015625 -37.613281 33.890625 -32.25 37.640625 -28.28125 C 41.390625 -24.320312 45.957031 -22.34375 51.34375 -22.34375 C 56.726562 -22.34375 61.296875 -24.296875 65.046875 -28.203125 C 68.796875 -32.117188 70.671875 -37.457031 70.671875 -44.21875 Z M 70.671875 -44.21875 "/></g></g></g><g fill="#efe8e8" fill-opacity="1"><g transform="translate(6.441281, 150.758831)"><g><path d="M 36.921875 -73.6875 C 40.085938 -78.550781 44.046875 -82.378906 48.796875 -85.171875 C 53.554688 -87.972656 58.84375 -89.375 64.65625 -89.375 L 64.65625 -60.6875 L 57.203125 -60.6875 C 50.441406 -60.6875 45.367188 -59.234375 41.984375 -56.328125 C 38.609375 -53.429688 36.921875 -48.335938 36.921875 -41.046875 L 36.921875 0 L 9.828125 0 L 9.828125 -88.421875 L 36.921875 -88.421875 Z M 36.921875 -73.6875 "/></g></g></g></svg>