<svg xmlns="http://www.w3.org/2000/svg" xmlns:xlink="http://www.w3.org/1999/xlink" width="500" zoomAndPan="magnify" viewBox="0 0 375 187.499995" height="250" preserveAspectRatio="xMidYMid meet" version="1.0"><defs><g/><clipPath id="c72ea6a251"><path d="M 76 62 L 177 62 L 177 187 L 76 187 Z M 76 62 " clip-rule="nonzero"/></clipPath></defs><g fill="#efe8e8" fill-opacity="1"><g transform="translate(26.7577, 150.758831)"><g/></g></g><g fill="#efe8e8" fill-opacity="1"><g transform="translate(51.794324, 150.758831)"><g/></g></g><g clip-path="url(#c72ea6a251)"><g fill="#efe8e8" fill-opacity="1"><g transform="translate(76.836057, 150.758831)"><g><path d="M 100.15625 -88.421875 L 44.6875 42 L 15.53125 42 L 35.8125 -3.015625 L -0.15625 -88.421875 L 30.109375 -88.421875 L 50.546875 -33.125 L 70.828125 -88.421875 Z M 100.15625 -88.421875 "/></g></g></g></g><g fill="#efe8e8" fill-opacity="1"><g transform="translate(168.427738, 150.758831)"><g><path d="M 4.4375 -44.375 C 4.4375 -53.457031 6.148438 -61.429688 9.578125 -68.296875 C 13.015625 -75.160156 17.691406 -80.441406 23.609375 -84.140625 C 29.523438 -87.835938 36.128906 -89.6875 43.421875 -89.6875 C 49.648438 -89.6875 55.113281 -88.421875 59.8125 -85.890625 C 64.519531 -83.359375 68.140625 -80.03125 70.671875 -75.90625 L 70.671875 -88.421875 L 97.78125 -88.421875 L 97.78125 0 L 70.671875 0 L 70.671875 -12.515625 C 68.035156 -8.398438 64.363281 -5.070312 59.65625 -2.53125 C 54.957031 0 49.492188 1.265625 43.265625 1.265625 C 36.078125 1.265625 29.523438 -0.609375 23.609375 -4.359375 C 17.691406 -8.109375 13.015625 -13.441406 9.578125 -20.359375 C 6.148438 -27.285156 4.4375 -35.289062 4.4375 -44.375 Z M 70.671875 -44.21875 C 70.671875 -50.976562 68.796875 -56.3125 65.046875 -60.21875 C 61.296875 -64.125 56.726562 -66.078125 51.34375 -66.078125 C 45.957031 -66.078125 41.390625 -64.148438 37.640625 -60.296875 C 33.890625 -56.441406 32.015625 -51.132812 32.015625 -44.375 C 32.015625 -37.613281 33.890625 -32.25 37.640625 -28.28125 C 41.390625 -24.320312 45.957031 -22.34375 51.34375 -22.34375 C 56.726562 -22.34375 61.296875 -24.296875 65.046875 -28.203125 C 68.796875 -32.117188 70.671875 -37.457031 70.671875 -44.21875 Z M 70.671875 -44.21875 "/></g></g></g><g fill="#efe8e8" fill-opacity="1"><g transform="translate(267.467243, 150.758831)"><g><path d="M 4.4375 -44.375 C 4.4375 -53.457031 6.148438 -61.429688 9.578125 -68.296875 C 13.015625 -75.160156 17.691406 -80.441406 23.609375 -84.140625 C 29.523438 -87.835938 36.128906 -89.6875 43.421875 -89.6875 C 49.648438 -89.6875 55.113281 -88.421875 59.8125 -85.890625 C 64.519531 -83.359375 68.140625 -80.03125 70.671875 -75.90625 L 70.671875 -88.421875 L 97.78125 -88.421875 L 97.78125 0 L 70.671875 0 L 70.671875 -12.515625 C 68.035156 -8.398438 64.363281 -5.070312 59.65625 -2.53125 C 54.957031 0 49.492188 1.265625 43.265625 1.265625 C 36.078125 1.265625 29.523438 -0.609375 23.609375 -4.359375 C 17.691406 -8.109375 13.015625 -13.441406 9.578125 -20.359375 C 6.148438 -27.285156 4.4375 -35.289062 4.4375 -44.375 Z M 70.671875 -44.21875 C 70.671875 -50.976562 68.796875 -56.3125 65.046875 -60.21875 C 61.296875 -64.125 56.726562 -66.078125 51.34375 -66.078125 C 45.957031 -66.078125 41.390625 -64.148438 37.640625 -60.296875 C 33.890625 -56.441406 32.015625 -51.132812 32.015625 -44.375 C 32.015625 -37.613281 33.890625 -32.25 37.640625 -28.28125 C 41.390625 -24.320312 45.957031 -22.34375 51.34375 -22.34375 C 56.726562 -22.34375 61.296875 -24.296875 65.046875 -28.203125 C 68.796875 -32.117188 70.671875 -37.457031 70.671875 -44.21875 Z M 70.671875 -44.21875 "/></g></g></g><g fill="#efe8e8" fill-opacity="1"><g transform="translate(6.441281, 150.758831)"><g><path d="M 36.921875 -73.6875 C 40.085938 -78.550781 44.046875 -82.378906 48.796875 -85.171875 C 53.554688 -87.972656 58.84375 -89.375 64.65625 -89.375 L 64.65625 -60.6875 L 57.203125 -60.6875 C 50.441406 -60.6875 45.367188 -59.234375 41.984375 -56.328125 C 38.609375 -53.429688 36.921875 -48.335938 36.921875 -41.046875 L 36.921875 0 L 9.828125 0 L 9.828125 -88.421875 L 36.921875 -88.421875 Z M 36.921875 -73.6875 "/></g></g></g><g fill="#efe8e8" fill-opacity="1"><g transform="translate(142.512256, 177.14354)"><g><path d="M 8.546875 -13.546875 L 8.546875 0 L 5.265625 0 L 5.265625 -13.546875 L 0.5625 -13.546875 L 0.5625 -16.296875 L 13.265625 -16.296875 L 13.265625 -13.546875 Z M 8.546875 -13.546875 "/></g></g></g><g fill="#efe8e8" fill-opacity="1"><g transform="translate(156.326628, 177.14354)"><g><path d="M 8.046875 -12.0625 C 9.347656 -12.0625 10.34375 -11.710938 11.03125 -11.015625 C 11.71875 -10.328125 12.0625 -9.359375 12.0625 -8.109375 L 12.0625 0 L 8.9375 0 L 8.9375 -7.375 C 8.9375 -8.125 8.796875 -8.691406 8.515625 -9.078125 C 8.234375 -9.472656 7.765625 -9.671875 7.109375 -9.671875 C 6.867188 -9.671875 6.613281 -9.625 6.34375 -9.53125 C 6.070312 -9.445312 5.835938 -9.320312 5.640625 -9.15625 C 5.410156 -8.957031 5.226562 -8.753906 5.09375 -8.546875 C 4.957031 -8.335938 4.851562 -8.070312 4.78125 -7.75 C 4.707031 -7.425781 4.671875 -7.019531 4.671875 -6.53125 L 4.671875 0 L 1.546875 0 L 1.546875 -16.296875 L 4.671875 -16.296875 L 4.671875 -10.5 C 5.085938 -11.019531 5.597656 -11.410156 6.203125 -11.671875 C 6.804688 -11.929688 7.421875 -12.0625 8.046875 -12.0625 Z M 8.046875 -12.0625 "/></g></g></g><g fill="#efe8e8" fill-opacity="1"><g transform="translate(169.874271, 177.14354)"><g><path d="M 6.453125 -2.109375 C 7.117188 -2.109375 7.660156 -2.257812 8.078125 -2.5625 C 8.503906 -2.863281 8.800781 -3.257812 8.96875 -3.75 L 12.078125 -3.265625 C 11.660156 -2.117188 10.984375 -1.238281 10.046875 -0.625 C 9.117188 -0.0195312 7.976562 0.28125 6.625 0.28125 C 5.351562 0.28125 4.28125 0.03125 3.40625 -0.46875 C 2.53125 -0.976562 1.875 -1.691406 1.4375 -2.609375 C 1 -3.523438 0.78125 -4.597656 0.78125 -5.828125 C 0.78125 -6.960938 1.003906 -8.003906 1.453125 -8.953125 C 1.910156 -9.898438 2.578125 -10.65625 3.453125 -11.21875 C 4.328125 -11.78125 5.367188 -12.0625 6.578125 -12.0625 C 7.722656 -12.0625 8.71875 -11.816406 9.5625 -11.328125 C 10.414062 -10.847656 11.078125 -10.140625 11.546875 -9.203125 C 12.015625 -8.265625 12.25 -7.128906 12.25 -5.796875 L 12.25 -4.84375 L 3.953125 -4.84375 C 4.023438 -3.96875 4.28125 -3.289062 4.71875 -2.8125 C 5.15625 -2.34375 5.734375 -2.109375 6.453125 -2.109375 Z M 3.96875 -7.125 L 9.140625 -7.125 C 9.066406 -7.945312 8.804688 -8.578125 8.359375 -9.015625 C 7.910156 -9.453125 7.320312 -9.671875 6.59375 -9.671875 C 5.894531 -9.671875 5.304688 -9.445312 4.828125 -9 C 4.347656 -8.550781 4.0625 -7.925781 3.96875 -7.125 Z M 3.96875 -7.125 "/></g></g></g><g fill="#efe8e8" fill-opacity="1"><g transform="translate(182.888455, 177.14354)"><g/></g></g><g fill="#efe8e8" fill-opacity="1"><g transform="translate(188.578687, 177.14354)"><g><path d="M 8.546875 -13.546875 L 8.546875 0 L 5.265625 0 L 5.265625 -13.546875 L 0.5625 -13.546875 L 0.5625 -16.296875 L 13.265625 -16.296875 L 13.265625 -13.546875 Z M 8.546875 -13.546875 "/></g></g></g><g fill="#efe8e8" fill-opacity="1"><g transform="translate(202.39306, 177.14354)"><g><path d="M 0.78125 -5.96875 C 0.78125 -7.125 1.015625 -8.164062 1.484375 -9.09375 C 1.960938 -10.019531 2.648438 -10.742188 3.546875 -11.265625 C 4.441406 -11.796875 5.5 -12.0625 6.71875 -12.0625 C 7.957031 -12.0625 9.023438 -11.796875 9.921875 -11.265625 C 10.828125 -10.734375 11.515625 -10.003906 11.984375 -9.078125 C 12.453125 -8.160156 12.6875 -7.117188 12.6875 -5.953125 C 12.6875 -4.734375 12.445312 -3.65625 11.96875 -2.71875 C 11.5 -1.78125 10.816406 -1.046875 9.921875 -0.515625 C 9.023438 0.015625 7.960938 0.28125 6.734375 0.28125 C 5.503906 0.28125 4.441406 0.015625 3.546875 -0.515625 C 2.648438 -1.046875 1.960938 -1.78125 1.484375 -2.71875 C 1.015625 -3.664062 0.78125 -4.75 0.78125 -5.96875 Z M 6.703125 -9.515625 C 6.179688 -9.515625 5.710938 -9.367188 5.296875 -9.078125 C 4.890625 -8.785156 4.566406 -8.363281 4.328125 -7.8125 C 4.097656 -7.269531 3.984375 -6.628906 3.984375 -5.890625 C 3.984375 -5.160156 4.09375 -4.519531 4.3125 -3.96875 C 4.53125 -3.425781 4.84375 -3.007812 5.25 -2.71875 C 5.664062 -2.425781 6.15625 -2.28125 6.71875 -2.28125 C 7.269531 -2.28125 7.753906 -2.421875 8.171875 -2.703125 C 8.585938 -2.992188 8.910156 -3.414062 9.140625 -3.96875 C 9.378906 -4.519531 9.5 -5.164062 9.5 -5.90625 C 9.5 -6.625 9.382812 -7.253906 9.15625 -7.796875 C 8.9375 -8.335938 8.613281 -8.757812 8.1875 -9.0625 C 7.769531 -9.363281 7.273438 -9.515625 6.703125 -9.515625 Z M 6.703125 -9.515625 "/></g></g></g><g fill="#efe8e8" fill-opacity="1"><g transform="translate(215.862907, 177.14354)"><g><path d="M 6.453125 -2.109375 C 6.835938 -2.109375 7.210938 -2.195312 7.578125 -2.375 C 7.953125 -2.5625 8.257812 -2.890625 8.5 -3.359375 C 8.75 -3.828125 8.875 -4.453125 8.875 -5.234375 L 8.875 -11.796875 L 12 -11.796875 L 12 0 L 9.09375 0 L 9.09375 -1.546875 C 8.675781 -0.960938 8.15625 -0.507812 7.53125 -0.1875 C 6.914062 0.125 6.242188 0.28125 5.515625 0.28125 C 4.203125 0.28125 3.203125 -0.0664062 2.515625 -0.765625 C 1.828125 -1.460938 1.484375 -2.441406 1.484375 -3.703125 L 1.484375 -11.796875 L 4.609375 -11.796875 L 4.609375 -4.421875 C 4.609375 -3.640625 4.753906 -3.054688 5.046875 -2.671875 C 5.347656 -2.296875 5.816406 -2.109375 6.453125 -2.109375 Z M 6.453125 -2.109375 "/></g></g></g><g fill="#efe8e8" fill-opacity="1"><g transform="translate(229.41055, 177.14354)"><g><path d="M 6.484375 -9.578125 C 5.671875 -9.578125 5.050781 -9.25 4.625 -8.59375 C 4.195312 -7.945312 3.984375 -7.046875 3.984375 -5.890625 C 3.984375 -4.804688 4.195312 -3.929688 4.625 -3.265625 C 5.050781 -2.609375 5.6875 -2.28125 6.53125 -2.28125 C 7.125 -2.28125 7.609375 -2.472656 7.984375 -2.859375 C 8.367188 -3.253906 8.617188 -3.8125 8.734375 -4.53125 L 11.8125 -4 C 11.476562 -2.550781 10.859375 -1.472656 9.953125 -0.765625 C 9.054688 -0.0664062 7.863281 0.28125 6.375 0.28125 C 5.164062 0.28125 4.140625 0.015625 3.296875 -0.515625 C 2.460938 -1.054688 1.832031 -1.789062 1.40625 -2.71875 C 0.988281 -3.65625 0.78125 -4.71875 0.78125 -5.90625 C 0.78125 -7.125 1 -8.195312 1.4375 -9.125 C 1.875 -10.050781 2.515625 -10.769531 3.359375 -11.28125 C 4.210938 -11.800781 5.242188 -12.0625 6.453125 -12.0625 C 7.804688 -12.0625 8.925781 -11.75 9.8125 -11.125 C 10.707031 -10.5 11.316406 -9.546875 11.640625 -8.265625 L 8.578125 -7.703125 C 8.453125 -8.304688 8.207031 -8.769531 7.84375 -9.09375 C 7.488281 -9.414062 7.035156 -9.578125 6.484375 -9.578125 Z M 6.484375 -9.578125 "/></g></g></g><g fill="#efe8e8" fill-opacity="1"><g transform="translate(241.935729, 177.14354)"><g><path d="M 8.046875 -12.0625 C 9.347656 -12.0625 10.34375 -11.710938 11.03125 -11.015625 C 11.71875 -10.328125 12.0625 -9.359375 12.0625 -8.109375 L 12.0625 0 L 8.9375 0 L 8.9375 -7.375 C 8.9375 -8.125 8.796875 -8.691406 8.515625 -9.078125 C 8.234375 -9.472656 7.765625 -9.671875 7.109375 -9.671875 C 6.867188 -9.671875 6.613281 -9.625 6.34375 -9.53125 C 6.070312 -9.445312 5.835938 -9.320312 5.640625 -9.15625 C 5.410156 -8.957031 5.226562 -8.753906 5.09375 -8.546875 C 4.957031 -8.335938 4.851562 -8.070312 4.78125 -7.75 C 4.707031 -7.425781 4.671875 -7.019531 4.671875 -6.53125 L 4.671875 0 L 1.546875 0 L 1.546875 -16.296875 L 4.671875 -16.296875 L 4.671875 -10.5 C 5.085938 -11.019531 5.597656 -11.410156 6.203125 -11.671875 C 6.804688 -11.929688 7.421875 -12.0625 8.046875 -12.0625 Z M 8.046875 -12.0625 "/></g></g></g><g fill="#efe8e8" fill-opacity="1"><g transform="translate(255.483372, 177.14354)"><g><path d="M 1.546875 0 L 1.546875 -16.296875 L 4.671875 -16.296875 L 4.671875 0 Z M 1.546875 0 "/></g></g></g><g fill="#efe8e8" fill-opacity="1"><g transform="translate(261.69595, 177.14354)"><g><path d="M 6.453125 -2.109375 C 7.117188 -2.109375 7.660156 -2.257812 8.078125 -2.5625 C 8.503906 -2.863281 8.800781 -3.257812 8.96875 -3.75 L 12.078125 -3.265625 C 11.660156 -2.117188 10.984375 -1.238281 10.046875 -0.625 C 9.117188 -0.0195312 7.976562 0.28125 6.625 0.28125 C 5.351562 0.28125 4.28125 0.03125 3.40625 -0.46875 C 2.53125 -0.976562 1.875 -1.691406 1.4375 -2.609375 C 1 -3.523438 0.78125 -4.597656 0.78125 -5.828125 C 0.78125 -6.960938 1.003906 -8.003906 1.453125 -8.953125 C 1.910156 -9.898438 2.578125 -10.65625 3.453125 -11.21875 C 4.328125 -11.78125 5.367188 -12.0625 6.578125 -12.0625 C 7.722656 -12.0625 8.71875 -11.816406 9.5625 -11.328125 C 10.414062 -10.847656 11.078125 -10.140625 11.546875 -9.203125 C 12.015625 -8.265625 12.25 -7.128906 12.25 -5.796875 L 12.25 -4.84375 L 3.953125 -4.84375 C 4.023438 -3.96875 4.28125 -3.289062 4.71875 -2.8125 C 5.15625 -2.34375 5.734375 -2.109375 6.453125 -2.109375 Z M 3.96875 -7.125 L 9.140625 -7.125 C 9.066406 -7.945312 8.804688 -8.578125 8.359375 -9.015625 C 7.910156 -9.453125 7.320312 -9.671875 6.59375 -9.671875 C 5.894531 -9.671875 5.304688 -9.445312 4.828125 -9 C 4.347656 -8.550781 4.0625 -7.925781 3.96875 -7.125 Z M 3.96875 -7.125 "/></g></g></g><g fill="#efe8e8" fill-opacity="1"><g transform="translate(274.710134, 177.14354)"><g><path d="M 5.6875 -9.84375 C 5.1875 -9.84375 4.785156 -9.753906 4.484375 -9.578125 C 4.179688 -9.398438 4.03125 -9.160156 4.03125 -8.859375 C 4.03125 -8.628906 4.097656 -8.429688 4.234375 -8.265625 C 4.378906 -8.109375 4.632812 -7.960938 5 -7.828125 C 5.375 -7.703125 5.890625 -7.585938 6.546875 -7.484375 C 8.046875 -7.234375 9.148438 -6.804688 9.859375 -6.203125 C 10.566406 -5.609375 10.921875 -4.769531 10.921875 -3.6875 C 10.921875 -2.9375 10.71875 -2.257812 10.3125 -1.65625 C 9.914062 -1.050781 9.34375 -0.578125 8.59375 -0.234375 C 7.84375 0.109375 6.960938 0.28125 5.953125 0.28125 C 4.398438 0.28125 3.175781 -0.0234375 2.28125 -0.640625 C 1.394531 -1.265625 0.859375 -2.175781 0.671875 -3.375 L 3.609375 -3.828125 C 3.734375 -3.210938 3.976562 -2.742188 4.34375 -2.421875 C 4.71875 -2.109375 5.253906 -1.953125 5.953125 -1.953125 C 6.546875 -1.953125 7.019531 -2.0625 7.375 -2.28125 C 7.726562 -2.507812 7.90625 -2.820312 7.90625 -3.21875 C 7.90625 -3.425781 7.84375 -3.601562 7.71875 -3.75 C 7.601562 -3.90625 7.382812 -4.039062 7.0625 -4.15625 C 6.75 -4.28125 6.296875 -4.390625 5.703125 -4.484375 C 4.066406 -4.734375 2.875 -5.191406 2.125 -5.859375 C 1.382812 -6.523438 1.015625 -7.414062 1.015625 -8.53125 C 1.015625 -9.25 1.203125 -9.875 1.578125 -10.40625 C 1.960938 -10.9375 2.507812 -11.34375 3.21875 -11.625 C 3.925781 -11.914062 4.765625 -12.0625 5.734375 -12.0625 C 7.109375 -12.0625 8.21875 -11.785156 9.0625 -11.234375 C 9.914062 -10.691406 10.429688 -9.914062 10.609375 -8.90625 L 7.625 -8.46875 C 7.539062 -8.90625 7.320312 -9.242188 6.96875 -9.484375 C 6.625 -9.722656 6.195312 -9.84375 5.6875 -9.84375 Z M 5.6875 -9.84375 "/></g></g></g><g fill="#efe8e8" fill-opacity="1"><g transform="translate(286.368442, 177.14354)"><g><path d="M 5.6875 -9.84375 C 5.1875 -9.84375 4.785156 -9.753906 4.484375 -9.578125 C 4.179688 -9.398438 4.03125 -9.160156 4.03125 -8.859375 C 4.03125 -8.628906 4.097656 -8.429688 4.234375 -8.265625 C 4.378906 -8.109375 4.632812 -7.960938 5 -7.828125 C 5.375 -7.703125 5.890625 -7.585938 6.546875 -7.484375 C 8.046875 -7.234375 9.148438 -6.804688 9.859375 -6.203125 C 10.566406 -5.609375 10.921875 -4.769531 10.921875 -3.6875 C 10.921875 -2.9375 10.71875 -2.257812 10.3125 -1.65625 C 9.914062 -1.050781 9.34375 -0.578125 8.59375 -0.234375 C 7.84375 0.109375 6.960938 0.28125 5.953125 0.28125 C 4.398438 0.28125 3.175781 -0.0234375 2.28125 -0.640625 C 1.394531 -1.265625 0.859375 -2.175781 0.671875 -3.375 L 3.609375 -3.828125 C 3.734375 -3.210938 3.976562 -2.742188 4.34375 -2.421875 C 4.71875 -2.109375 5.253906 -1.953125 5.953125 -1.953125 C 6.546875 -1.953125 7.019531 -2.0625 7.375 -2.28125 C 7.726562 -2.507812 7.90625 -2.820312 7.90625 -3.21875 C 7.90625 -3.425781 7.84375 -3.601562 7.71875 -3.75 C 7.601562 -3.90625 7.382812 -4.039062 7.0625 -4.15625 C 6.75 -4.28125 6.296875 -4.390625 5.703125 -4.484375 C 4.066406 -4.734375 2.875 -5.191406 2.125 -5.859375 C 1.382812 -6.523438 1.015625 -7.414062 1.015625 -8.53125 C 1.015625 -9.25 1.203125 -9.875 1.578125 -10.40625 C 1.960938 -10.9375 2.507812 -11.34375 3.21875 -11.625 C 3.925781 -11.914062 4.765625 -12.0625 5.734375 -12.0625 C 7.109375 -12.0625 8.21875 -11.785156 9.0625 -11.234375 C 9.914062 -10.691406 10.429688 -9.914062 10.609375 -8.90625 L 7.625 -8.46875 C 7.539062 -8.90625 7.320312 -9.242188 6.96875 -9.484375 C 6.625 -9.722656 6.195312 -9.84375 5.6875 -9.84375 Z M 5.6875 -9.84375 "/></g></g></g><g fill="#efe8e8" fill-opacity="1"><g transform="translate(298.02675, 177.14354)"><g/></g></g><g fill="#efe8e8" fill-opacity="1"><g transform="translate(303.716982, 177.14354)"><g><path d="M 12.59375 0 L 11.1875 -3.6875 L 4.890625 -3.6875 L 3.546875 0 L 0.046875 0 L 6.390625 -16.296875 L 9.65625 -16.296875 L 16.1875 0 Z M 7.234375 -10.125 L 5.890625 -6.453125 L 10.125 -6.453125 L 8.765625 -10.125 C 8.585938 -10.601562 8.425781 -11.085938 8.28125 -11.578125 C 8.144531 -12.078125 8.054688 -12.484375 8.015625 -12.796875 L 7.921875 -12.796875 C 7.785156 -11.898438 7.554688 -11.007812 7.234375 -10.125 Z M 7.234375 -10.125 "/></g></g></g><g fill="#efe8e8" fill-opacity="1"><g transform="translate(319.943035, 177.14354)"><g><path d="M 12.390625 -11.796875 L 12.390625 -1.078125 C 12.390625 0.316406 12.179688 1.445312 11.765625 2.3125 C 11.347656 3.175781 10.710938 3.800781 9.859375 4.1875 C 9.003906 4.582031 7.894531 4.78125 6.53125 4.78125 C 3.207031 4.78125 1.421875 3.445312 1.171875 0.78125 L 4.40625 1.296875 C 4.488281 1.679688 4.703125 1.957031 5.046875 2.125 C 5.398438 2.300781 5.9375 2.390625 6.65625 2.390625 C 7.507812 2.390625 8.160156 2.171875 8.609375 1.734375 C 9.066406 1.296875 9.296875 0.597656 9.296875 -0.359375 L 9.296875 -1.59375 L 9.265625 -1.59375 C 8.953125 -1.132812 8.488281 -0.753906 7.875 -0.453125 C 7.257812 -0.148438 6.578125 0 5.828125 0 C 4.835938 0 3.957031 -0.25 3.1875 -0.75 C 2.425781 -1.257812 1.832031 -1.96875 1.40625 -2.875 C 0.988281 -3.789062 0.78125 -4.828125 0.78125 -5.984375 C 0.78125 -7.253906 0.984375 -8.34375 1.390625 -9.25 C 1.796875 -10.164062 2.378906 -10.863281 3.140625 -11.34375 C 3.898438 -11.820312 4.789062 -12.0625 5.8125 -12.0625 C 6.59375 -12.0625 7.296875 -11.914062 7.921875 -11.625 C 8.546875 -11.332031 9.046875 -10.910156 9.421875 -10.359375 L 9.46875 -10.359375 L 9.46875 -11.796875 Z M 6.5 -9.578125 C 5.96875 -9.578125 5.507812 -9.429688 5.125 -9.140625 C 4.75 -8.859375 4.460938 -8.457031 4.265625 -7.9375 C 4.078125 -7.414062 3.984375 -6.816406 3.984375 -6.140625 C 3.984375 -5.410156 4.085938 -4.757812 4.296875 -4.1875 C 4.503906 -3.625 4.800781 -3.179688 5.1875 -2.859375 C 5.570312 -2.546875 6.03125 -2.390625 6.5625 -2.390625 C 7.101562 -2.390625 7.578125 -2.546875 7.984375 -2.859375 C 8.398438 -3.171875 8.71875 -3.601562 8.9375 -4.15625 C 9.164062 -4.707031 9.28125 -5.347656 9.28125 -6.078125 C 9.28125 -6.742188 9.164062 -7.34375 8.9375 -7.875 C 8.71875 -8.40625 8.394531 -8.820312 7.96875 -9.125 C 7.550781 -9.425781 7.0625 -9.578125 6.5 -9.578125 Z M 6.5 -9.578125 "/></g></g></g><g fill="#efe8e8" fill-opacity="1"><g transform="translate(333.868545, 177.14354)"><g><path d="M 6.453125 -2.109375 C 7.117188 -2.109375 7.660156 -2.257812 8.078125 -2.5625 C 8.503906 -2.863281 8.800781 -3.257812 8.96875 -3.75 L 12.078125 -3.265625 C 11.660156 -2.117188 10.984375 -1.238281 10.046875 -0.625 C 9.117188 -0.0195312 7.976562 0.28125 6.625 0.28125 C 5.351562 0.28125 4.28125 0.03125 3.40625 -0.46875 C 2.53125 -0.976562 1.875 -1.691406 1.4375 -2.609375 C 1 -3.523438 0.78125 -4.597656 0.78125 -5.828125 C 0.78125 -6.960938 1.003906 -8.003906 1.453125 -8.953125 C 1.910156 -9.898438 2.578125 -10.65625 3.453125 -11.21875 C 4.328125 -11.78125 5.367188 -12.0625 6.578125 -12.0625 C 7.722656 -12.0625 8.71875 -11.816406 9.5625 -11.328125 C 10.414062 -10.847656 11.078125 -10.140625 11.546875 -9.203125 C 12.015625 -8.265625 12.25 -7.128906 12.25 -5.796875 L 12.25 -4.84375 L 3.953125 -4.84375 C 4.023438 -3.96875 4.28125 -3.289062 4.71875 -2.8125 C 5.15625 -2.34375 5.734375 -2.109375 6.453125 -2.109375 Z M 3.96875 -7.125 L 9.140625 -7.125 C 9.066406 -7.945312 8.804688 -8.578125 8.359375 -9.015625 C 7.910156 -9.453125 7.320312 -9.671875 6.59375 -9.671875 C 5.894531 -9.671875 5.304688 -9.445312 4.828125 -9 C 4.347656 -8.550781 4.0625 -7.925781 3.96875 -7.125 Z M 3.96875 -7.125 "/></g></g></g><g fill="#efe8e8" fill-opacity="1"><g transform="translate(346.882729, 177.14354)"><g><path d="M 8.9375 -7.375 C 8.9375 -8.125 8.796875 -8.691406 8.515625 -9.078125 C 8.234375 -9.472656 7.765625 -9.671875 7.109375 -9.671875 C 6.390625 -9.671875 5.800781 -9.410156 5.34375 -8.890625 C 4.882812 -8.378906 4.660156 -7.59375 4.671875 -6.53125 L 4.671875 0 L 1.546875 0 L 1.546875 -11.796875 L 4.453125 -11.796875 L 4.453125 -10.25 C 4.878906 -10.84375 5.398438 -11.289062 6.015625 -11.59375 C 6.628906 -11.90625 7.304688 -12.0625 8.046875 -12.0625 C 9.347656 -12.0625 10.34375 -11.710938 11.03125 -11.015625 C 11.71875 -10.328125 12.0625 -9.359375 12.0625 -8.109375 L 12.0625 0 L 8.9375 0 Z M 8.9375 -7.375 "/></g></g></g><g fill="#efe8e8" fill-opacity="1"><g transform="translate(360.430372, 177.14354)"><g><path d="M 7.21875 -11.796875 L 7.21875 -9.3125 L 5.015625 -9.3125 L 5.015625 -3.5625 C 5.015625 -3.226562 5.035156 -2.972656 5.078125 -2.796875 C 5.128906 -2.617188 5.21875 -2.492188 5.34375 -2.421875 C 5.46875 -2.359375 5.648438 -2.328125 5.890625 -2.328125 C 6.273438 -2.328125 6.6875 -2.382812 7.125 -2.5 L 7.515625 -0.09375 C 7.171875 0.0195312 6.789062 0.109375 6.375 0.171875 C 5.96875 0.242188 5.550781 0.28125 5.125 0.28125 C 4.289062 0.28125 3.640625 0.164062 3.171875 -0.0625 C 2.710938 -0.289062 2.382812 -0.664062 2.1875 -1.1875 C 1.988281 -1.71875 1.890625 -2.441406 1.890625 -3.359375 L 1.890625 -9.3125 L 0.21875 -9.3125 L 0.21875 -11.796875 L 1.890625 -11.796875 L 1.890625 -13.953125 L 5.015625 -16.15625 L 5.015625 -11.796875 Z M 7.21875 -11.796875 "/></g></g></g></svg>